<svg width="554" height="554" viewBox="0 0 554 554" fill="none" xmlns="http://www.w3.org/2000/svg">
<rect width="554" height="554" fill="#EEF3F7"/>
<path d="M54.5 373V229C54.5 222.333 56.0833 216.333 59.25 211C62.5833 205.5 66.9167 201.167 72.25 198C77.75 194.667 83.8333 193 90.5 193H198.25C204.917 193 210.917 194.667 216.25 198C221.75 201.167 226.167 205.5 229.5 211C232.833 216.333 234.5 222.333 234.5 229V373H198V313.75H90.5V373H54.5ZM90.5 277.75H198V230.75C198 230.25 197.833 229.917 197.5 229.75C197.333 229.417 197 229.25 196.5 229.25H92C91.5 229.25 91.0833 229.417 90.75 229.75C90.5833 229.917 90.5 230.25 90.5 230.75V277.75Z" fill="#0E1B24"/>
<path d="M298.984 373C292.318 373 286.234 371.417 280.734 368.25C275.401 364.917 271.068 360.583 267.734 355.25C264.568 349.75 262.984 343.667 262.984 337V229C262.984 222.333 264.568 216.333 267.734 211C271.068 205.5 275.401 201.167 280.734 198C286.234 194.667 292.318 193 298.984 193H406.734C413.401 193 419.401 194.667 424.734 198C430.234 201.167 434.651 205.5 437.984 211C441.318 216.333 442.984 222.333 442.984 229V244.5H406.484V230.75C406.484 230.25 406.318 229.917 405.984 229.75C405.818 229.417 405.484 229.25 404.984 229.25H300.484C299.984 229.25 299.568 229.417 299.234 229.75C299.068 229.917 298.984 230.25 298.984 230.75V335.25C298.984 335.75 299.068 336.167 299.234 336.5C299.568 336.667 299.984 336.75 300.484 336.75H404.984C405.484 336.75 405.818 336.667 405.984 336.5C406.318 336.167 406.484 335.75 406.484 335.25V305.75H366.734V269.5H442.984V337C442.984 343.667 441.318 349.75 437.984 355.25C434.651 360.583 430.234 364.917 424.734 368.25C419.401 371.417 413.401 373 406.734 373H298.984Z" fill="#1766B5"/>
<path d="M470.004 373V337.5H505.504V373H470.004Z" fill="black"/>
</svg>
